<?xml version="1.0" encoding="utf-8"?>
<!-- Generator: Adobe Illustrator 21.1.0, SVG Export Plug-In . SVG Version: 6.00 Build 0)  -->
<svg version="1.1" id="Layer_1" xmlns="http://www.w3.org/2000/svg" xmlns:xlink="http://www.w3.org/1999/xlink" x="0px" y="0px"
	 width="141.6px" height="47.7px" viewBox="0 0 141.6 47.7" enable-background="new 0 0 141.6 47.7" xml:space="preserve">
<g>
	<g>
		<path fill="#333740" d="M104.5,45.1c-0.1,0-0.1-0.1-0.2-0.1c-0.4-0.2-0.8-0.3-0.8-0.6c0.1-0.4,0.6-0.5,0.9-0.5
			c0.3,0,0.5,0.1,0.6,0.2c0.1,0.1,0.1,0.3,0.1,0.4l0,0.1h0.8l0,0c0.1-0.4,0-0.7-0.2-0.9c-0.2-0.3-0.7-0.4-1.2-0.4
			c-0.8,0-1.7,0.4-1.8,1.3c-0.1,0.6,0.4,1,1,1.2c0.1,0,0.1,0.1,0.2,0.1c0.4,0.2,0.8,0.3,0.8,0.7c-0.1,0.4-0.6,0.6-1,0.6
			c-0.3,0-0.6,0-0.8-0.3c-0.1-0.1-0.1-0.3-0.1-0.5l0-0.1H102l0,0c-0.1,0.4,0,0.8,0.2,1c0.3,0.3,0.7,0.4,1.3,0.4
			c0.9,0,1.8-0.4,1.9-1.3C105.6,45.6,105.1,45.3,104.5,45.1z"/>
		<polygon fill="#333740" points="108.8,41.7 108,41.7 107.7,42.6 108.5,42.6 		"/>
		<polygon fill="#333740" points="107.5,43.3 105.9,47.6 106.7,47.6 108.2,43.3 		"/>
		<path fill="#333740" d="M111.5,43.2c-0.5,0-1.1,0.2-1.5,0.6l0.2-0.5h-0.8l-1.5,4.3h0.8l0.8-2.4c0.1-0.3,0.3-0.6,0.6-0.9
			c0.3-0.3,0.7-0.5,1.1-0.5c0.2,0,0.4,0.1,0.5,0.2c0.1,0.1,0.1,0.2,0.1,0.4c0,0.1-0.1,0.5-0.2,0.6l-0.9,2.5h0.8l0.9-2.4
			c0.1-0.3,0.2-0.7,0.2-0.8c0.1-0.4,0-0.6-0.2-0.8C112.3,43.3,112,43.2,111.5,43.2z"/>
		<path fill="#333740" d="M115.8,43.2c-1.6,0-2.6,1.3-2.7,2.6c-0.1,0.6,0,1.1,0.3,1.4c0.3,0.3,0.7,0.5,1.2,0.5c1,0,1.8-0.5,2.2-1.5
			l0-0.1H116l0,0c-0.3,0.5-0.8,0.8-1.3,0.8c-0.3,0-0.5-0.1-0.7-0.2c-0.2-0.2-0.2-0.5-0.2-0.9c0.1-1,0.9-1.9,1.9-1.9
			c0.3,0,0.5,0.1,0.6,0.2c0.1,0.1,0.2,0.3,0.1,0.5l0,0.1h0.8l0,0c0-0.5,0-0.8-0.3-1.1C116.7,43.3,116.3,43.2,115.8,43.2z"/>
		<path fill="#333740" d="M120.1,43.2c-1.2,0-2.4,1.2-2.6,2.8c0,0.3-0.1,0.8,0.3,1.3c0.3,0.3,0.7,0.5,1.3,0.5c1,0,1.8-0.6,2.1-1.4
			l0-0.1h-0.8l0,0c-0.3,0.5-0.7,0.8-1.3,0.8c-0.3,0-0.6-0.1-0.7-0.3c-0.1-0.2-0.2-0.4-0.2-0.7c0-0.1,0-0.2,0.1-0.3h3.2l0,0
			c0.1-0.2,0.1-0.4,0.1-0.6c0.1-0.6,0-1.1-0.3-1.5C121.1,43.3,120.7,43.2,120.1,43.2z M120.9,45h-2.3c0.3-0.5,0.7-1.1,1.6-1.1
			c0.3,0,0.5,0.1,0.6,0.3C120.9,44.3,121,44.6,120.9,45z"/>
		<path fill="#333740" d="M127.7,41.7c-0.4,0.7-1.3,1-2,1h0l-0.2,0.6h0.1c0.5,0,1,0,1.4-0.1l-1.5,4.3l0,0.1h0.8l2.1-5.8l0-0.1
			L127.7,41.7L127.7,41.7z"/>
		<path fill="#333740" d="M131.4,41.7c-1.2,0-2.2,0.9-2.4,2.2c-0.1,0.5,0,1,0.3,1.3c0.3,0.3,0.6,0.5,1.1,0.5c0.4,0,0.9-0.1,1.2-0.4
			c-0.4,0.9-0.9,1.8-1.9,1.8c-0.3,0-0.4-0.1-0.5-0.2c-0.1-0.1-0.2-0.3-0.1-0.6l0-0.1h-0.8l0,0c-0.1,0.5,0,0.8,0.2,1.1
			c0.2,0.3,0.7,0.4,1.2,0.4c1.3,0,1.9-0.8,2.4-1.6c0.4-0.7,0.7-1.6,0.8-2.4c0.1-0.7,0-1.2-0.3-1.5C132.4,41.9,132,41.7,131.4,41.7z
			 M130.8,44.9c-0.3,0-0.5-0.1-0.7-0.3c-0.2-0.2-0.2-0.5-0.2-0.8c0.1-0.7,0.6-1.4,1.4-1.4c0.3,0,0.6,0.1,0.7,0.3
			c0.2,0.2,0.2,0.5,0.2,0.9C132.1,44.2,131.6,44.9,130.8,44.9z"/>
		<path fill="#333740" d="M136.2,41.7c-1.2,0-2.2,0.9-2.4,2.2c-0.1,0.5,0,1,0.3,1.3c0.3,0.3,0.6,0.5,1.1,0.5c0.4,0,0.9-0.1,1.2-0.4
			c-0.4,0.9-0.9,1.8-1.9,1.8c-0.3,0-0.4-0.1-0.5-0.2c-0.1-0.1-0.2-0.3-0.1-0.6l0-0.1h-0.8l0,0c-0.1,0.5,0,0.8,0.2,1.1
			c0.2,0.3,0.7,0.4,1.2,0.4c1.3,0,1.9-0.8,2.4-1.6c0.4-0.7,0.7-1.6,0.8-2.4c0.1-0.7,0-1.2-0.3-1.5C137.1,41.9,136.7,41.7,136.2,41.7
			z M135.5,44.9c-0.3,0-0.5-0.1-0.7-0.3c-0.2-0.2-0.2-0.5-0.2-0.8c0.1-0.7,0.6-1.4,1.4-1.4c0.3,0,0.6,0.1,0.7,0.3
			c0.2,0.2,0.2,0.5,0.2,0.9C136.8,44.2,136.3,44.9,135.5,44.9z"/>
		<path fill="#333740" d="M141,41.7L141,41.7c-0.5,0.7-1.3,1-2,1h0l-0.2,0.6h0.1c0.5,0,1,0,1.4-0.1l-1.5,4.3l0,0.1h0.8l2.1-5.8
			l0-0.1H141z"/>
	</g>
	<path fill="#333740" d="M83.6,22.7c-1.7,4.3-5.8,9.3-14.3,10.5c-1.3,0.2-2.7,0.3-4.3,0.3c-10.6,0-12-6.1-10.1-10.8
		c1.6-4.1,6.3-9.2,14.3-10.5c1.3-0.2,2.7-0.3,4.1-0.3C84.8,11.9,85.6,17.7,83.6,22.7 M91,12.7c-2.4-2.4-7.1-3.8-14.7-3.8
		c-2.7,0-5,0.2-6.9,0.6c-6,1.1-9.1,3.4-10.7,4.5h-0.2L60.8,9h-7.9L38.1,46.7H46l5.8-14.8h0.2c2.4,3.4,5.7,4.5,13.6,4.5
		c1.3,0,2.6,0,3.8-0.2c10.7-0.9,18.2-5.7,21.7-12c0.3-0.6,0.6-1.2,0.8-1.9C93.4,18.4,93.3,15.1,91,12.7z M48.8,9.2l-8,20.4
		c-0.7,2.1-1.6,4.2-2,6.3h-8l1.9-4.8h-0.2c-3,2.4-6.9,5.4-17.4,5.4c-15.9,0-16.3-4.4-14-10.3L7.7,9.2h8L9.3,25.4
		c-2,5-1.8,7.8,6.9,7.8c11.4,0,17.7-4.8,19.3-9.3l5.8-14.8H48.8z M130.7,22.7c-1.8,4.3-6,9.1-14.6,10.3c-1.4,0.2-2.8,0.3-4.4,0.3
		c-8.2,0-11-3.4-11.1-7.1l2.7-6.9c2.4-3.1,6.5-6.1,12.8-7c1.3-0.2,2.7-0.3,4.2-0.3C132,12,132.7,17.7,130.7,22.7z M123.5,8.4
		c-2.7,0-5.2,0.3-7.4,0.8c-5.7,1.2-9.4,3.4-10.4,4.4h-0.2L110.9,0h-7.7L89.1,35.7h7.7l1.8-4.3h0.1c2,3.4,6.7,4.9,13.9,4.9
		c1.2,0,2.4,0,3.5-0.1c12-1,20-6.6,22.9-13.9C142.1,14.2,138.4,8.4,123.5,8.4z"/>
</g>
</svg>
